<svg xmlns="http://www.w3.org/2000/svg" viewBox="0 0 512 512">
  <defs>
    <linearGradient id="fireGradient" x1="0%" y1="0%" x2="0%" y2="100%">
      <stop offset="0%" style="stop-color:#ff8800;stop-opacity:1" />
      <stop offset="50%" style="stop-color:#ff4444;stop-opacity:1" />
      <stop offset="100%" style="stop-color:#ff4444;stop-opacity:1" />
    </linearGradient>
  </defs>

  <!-- Flame shape -->
  <path d="M256 32c-17.7 0-32 14.3-32 32v64c0 17.7 14.3 32 32 32s32-14.3 32-32V64c0-17.7-14.3-32-32-32zm0 160c-88.4 0-160 71.6-160 160 0 88.4 71.6 160 160 160s160-71.6 160-160c0-88.4-71.6-160-160-160zm0 256c-53 0-96-43-96-96s43-96 96-96 96 43 96 96-43 96-96 96z"
        fill="url(#fireGradient)"/>
</svg>
